# xmcd CD database file
#
# Track frame offsets:
#	150
#	21422
#	42382
#	56434
#	76517
#	96236
#	114389
#	133746
#	153416
#	174089
#	194120
#	215269
#	229031
#	242361
#
# Disc length: 3369 seconds
#
# Revision: 1
# Processed by: cddbd v1.5.2PL0 Copyright (c) Steve Scherf et al.
# Submitted via: Feurio! 1.68 - http://www.feurio.com
#
DISCID=af0d270e
DTITLE=Various Artist - An All-Star Tribute To ZZ Top
DYEAR=2008
DGENRE=Southern Rock
TTITLE0=Molly Hatchet - Sharp Dressed Man
TTITLE1=Jim Dandy's Black Oak Arkansas - La Grange
TTITLE2=Atlanta Rhythm Section - Sharp Dressed Man-Gimme All Your Lovin'
TTITLE3=Artimus Pyle - Legs
TTITLE4=Pat Travers - Jesus Just Left Chicago
TTITLE5=Walter Trout - Gimme All Your Lovin'
TTITLE6=Fee Waybill - Cheap Sunglasses
TTITLE7=Artimus Pyle Band - Peark Necklace
TTITLE8=Winters Brothers Band - Planet of Women
TTITLE9=Sky Sunlight Saxon - Sharp Dressed Man
TTITLE10=National Dust - I'm Bad I'm Nationwide
TTITLE11=Pat Travers - Waitin' For the Bus
TTITLE12=Long Island Street Survivors - Heard It on the X
TTITLE13=Jason McMaster - Tush
EXTD=
EXTT0=
EXTT1=
EXTT2=
EXTT3=
EXTT4=
EXTT5=
EXTT6=
EXTT7=
EXTT8=
EXTT9=
EXTT10=
EXTT11=
EXTT12=
EXTT13=
PLAYORDER=
